<?xml version="1.0" standalone="no"?>
<!DOCTYPE svg PUBLIC "-//W3C//DTD SVG 20010904//EN"
 "http://www.w3.org/TR/2001/REC-SVG-20010904/DTD/svg10.dtd">
<svg version="1.0" xmlns="http://www.w3.org/2000/svg"
 width="500.000000pt" height="500.000000pt" viewBox="0 0 500.000000 500.000000"
 preserveAspectRatio="xMidYMid meet">

<g transform="translate(0.000000,500.000000) scale(0.100000,-0.100000)"
fill="#000000" stroke="none">
<path d="M0 2500 l0 -2500 2500 0 2500 0 0 2500 0 2500 -2500 0 -2500 0 0
-2500z m3110 2278 c25 -23 88 -83 141 -134 53 -51 112 -99 131 -107 19 -8 45
-29 57 -46 28 -38 71 -44 71 -8 0 12 -7 35 -15 51 -22 43 -19 56 14 56 22 0
41 -12 75 -46 24 -26 50 -59 56 -75 9 -21 21 -30 44 -33 17 -3 48 -8 69 -11
30 -5 37 -3 37 10 0 29 30 75 49 75 11 0 43 -9 73 -19 29 -10 72 -24 96 -30
48 -14 105 -59 129 -105 9 -17 24 -58 33 -91 15 -58 16 -60 58 -68 50 -10 106
-60 115 -103 3 -16 -2 -65 -10 -110 -15 -69 -15 -85 -3 -113 l13 -33 18 33 c9
19 31 48 49 64 31 29 34 30 126 28 136 -2 144 -9 144 -121 0 -151 -26 -197
-116 -207 -91 -11 -164 -28 -175 -42 -20 -24 -1 -27 43 -7 75 33 261 16 301
-29 22 -25 22 -84 -1 -122 -19 -30 -41 -45 -97 -65 l-29 -11 92 -89 c51 -48
92 -96 92 -106 0 -10 -9 -52 -20 -93 -42 -162 -92 -377 -92 -396 1 -11 26 -81
57 -155 31 -74 74 -180 96 -236 l41 -100 -144 -190 c-79 -104 -182 -238 -227
-298 l-84 -108 -47 -192 c-26 -105 -66 -270 -90 -366 -23 -96 -43 -176 -44
-177 -1 -1 -74 -23 -161 -48 -367 -105 -344 -97 -372 -138 -13 -18 -31 -42
-41 -53 -10 -10 -43 -53 -74 -94 -31 -41 -79 -104 -107 -140 -29 -35 -56 -71
-60 -78 -9 -15 -17 -15 -286 24 -437 62 -469 64 -550 40 -183 -55 -286 -86
-340 -101 -33 -9 -69 -21 -80 -25 -11 -4 -66 -20 -122 -36 l-103 -27 -62 58
c-35 33 -119 113 -188 179 l-125 120 -165 23 c-91 12 -187 25 -213 29 l-49 7
48 -94 c25 -52 62 -108 80 -126 40 -37 31 -50 -14 -23 -24 15 -45 47 -84 125
l-52 106 -25 -32 c-33 -42 -77 -59 -154 -59 -113 0 -171 62 -164 174 3 49 8
63 31 82 15 13 39 27 54 30 52 11 54 12 42 34 -10 20 -11 20 -31 1 -26 -24
-205 -81 -255 -81 -62 0 -95 40 -101 123 -5 59 -4 65 18 81 13 9 29 16 37 16
7 0 37 18 67 41 29 22 66 44 82 48 31 8 30 28 -2 23 -11 -1 -54 -23 -95 -49
-58 -36 -87 -47 -128 -51 l-54 -5 -56 59 c-32 33 -72 70 -89 82 -18 13 -33 31
-33 40 0 20 54 111 92 156 24 28 32 31 82 30 50 0 60 -4 107 -44 47 -39 52
-41 46 -20 -4 14 -7 34 -7 44 0 10 -36 53 -80 95 l-80 77 0 71 0 70 -81 79
c-45 43 -93 90 -106 103 -30 29 -31 19 38 301 51 206 56 259 30 307 -13 23
-42 91 -76 178 -15 39 -36 88 -45 110 -52 117 -52 116 -33 144 9 14 51 69 92
122 42 53 85 109 96 125 11 15 29 39 41 53 12 14 64 81 117 149 l95 123 26
107 c14 59 52 224 86 367 33 143 64 263 68 267 4 3 32 13 62 21 30 8 111 31
180 52 69 20 154 45 189 55 36 10 72 27 80 38 9 11 50 65 91 119 41 54 107
139 147 189 l71 91 59 -8 c493 -69 665 -90 703 -86 25 3 81 17 125 30 80 25
113 35 345 103 69 20 143 42 165 50 62 20 77 17 125 -28z"/>
<path d="M3020 4790 c-14 -5 -110 -34 -215 -64 -104 -31 -217 -65 -250 -75
-33 -10 -75 -22 -92 -26 -62 -13 -41 -22 90 -39 73 -9 175 -23 227 -31 52 -8
154 -22 225 -30 72 -9 137 -17 145 -18 9 -1 16 7 18 21 5 32 36 45 91 38 l46
-7 -125 120 c-69 66 -127 120 -130 120 -3 0 -16 -4 -30 -9z"/>
<path d="M1518 4577 c-42 -56 -102 -135 -133 -175 -31 -41 -55 -75 -53 -77 2
-2 48 10 103 26 55 17 186 55 290 85 105 31 244 71 310 91 66 19 138 39 159
44 74 18 70 26 -21 38 -306 40 -554 71 -565 71 -7 0 -48 -46 -90 -103z"/>
<path d="M2295 4575 c-51 -17 -429 -131 -615 -185 -80 -23 -170 -50 -200 -59
-30 -10 -86 -26 -124 -37 l-69 -19 -275 -355 c-152 -195 -292 -375 -311 -399
-20 -25 -48 -62 -62 -83 -14 -21 -29 -35 -34 -31 -4 5 -5 3 -1 -4 4 -7 -21
-126 -55 -265 -34 -139 -88 -361 -120 -493 -81 -333 -78 -302 -29 -420 23 -55
59 -144 80 -197 22 -54 48 -117 58 -140 11 -24 28 -64 38 -91 19 -47 19 -47
59 -42 118 17 187 -150 111 -266 -33 -49 -28 -61 13 -26 72 60 178 73 227 26
27 -26 29 -39 13 -123 -21 -112 -30 -136 -55 -160 l-26 -23 36 -36 36 -36 78
19 c110 28 120 27 138 -16 17 -40 12 -78 -17 -136 -19 -37 -19 -38 2 -59 16
-16 27 -19 52 -13 55 12 106 4 155 -25 82 -48 108 -111 80 -191 -11 -33 -10
-35 41 -81 32 -30 64 -50 84 -53 17 -3 91 -12 162 -21 72 -9 175 -23 230 -30
55 -8 170 -23 255 -35 85 -11 205 -27 266 -36 145 -21 155 -19 404 56 123 38
357 107 540 160 278 80 258 70 322 158 59 81 151 201 433 570 l171 223 38 157
c20 86 70 292 111 457 121 499 112 443 85 511 -12 33 -30 77 -40 99 -9 22 -27
65 -40 97 -19 47 -28 57 -53 62 -30 6 -77 8 -77 3 0 -1 11 -43 25 -92 34 -123
33 -205 -2 -205 -12 0 -14 9 -9 45 10 63 -21 215 -43 215 -26 0 -37 -12 -75
-77 -43 -73 -58 -83 -121 -83 -65 0 -175 62 -175 99 0 9 -7 29 -15 45 -19 37
-19 45 5 110 28 74 62 106 112 106 49 0 82 -17 154 -80 31 -27 61 -50 66 -50
5 0 6 16 2 35 -9 52 3 100 36 135 34 36 36 48 16 75 -13 18 -14 18 -25 -3 -18
-33 -83 -62 -140 -62 -99 0 -231 74 -231 128 0 21 76 100 128 134 43 28 110
20 185 -23 11 -6 20 -9 22 -7 7 7 -52 142 -64 146 -6 2 -27 -6 -47 -17 -68
-40 -101 -30 -212 68 -44 38 -62 61 -62 78 0 29 49 103 86 130 l26 19 -70 63
c-39 34 -98 75 -130 92 l-60 30 -75 -26 c-42 -14 -90 -25 -107 -25 -41 0 -78
38 -86 88 l-6 39 -74 -5 c-77 -5 -104 5 -104 36 0 22 86 101 133 122 31 14 36
19 21 23 -11 3 0 5 24 6 23 0 42 5 42 9 0 4 -20 28 -45 52 l-45 44 0 -58 c0
-32 -4 -55 -9 -51 -5 3 -33 -18 -63 -47 -67 -65 -93 -68 -171 -14 -67 46 -104
86 -113 121 -5 21 1 31 31 60 46 42 42 62 -17 69 -150 17 -391 49 -628 81 -98
14 -182 18 -205 10z m-187 -792 c-11 -31 4 -78 102 -313 29 -69 68 -163 87
-210 51 -125 76 -180 82 -180 6 0 33 64 194 450 71 173 82 230 47 252 -35 22
-22 28 65 28 47 0 85 -3 85 -7 0 -3 -18 -21 -40 -40 -49 -43 -100 -146 -240
-484 l-101 -245 31 -68 c16 -37 30 -72 30 -77 0 -14 -136 -11 -147 4 -5 6 -18
32 -27 57 -48 122 -281 683 -307 736 -17 34 -41 72 -55 85 -13 12 -24 26 -24
31 0 4 51 8 114 8 l114 0 -10 -27z m-908 -1598 l0 -205 -25 0 -25 0 0 205 0
205 25 0 25 0 0 -205z m245 50 c50 -85 94 -154 98 -155 4 0 7 68 6 152 -1 103
3 154 10 156 8 3 11 -57 11 -202 0 -165 -3 -206 -13 -206 -8 0 -20 12 -28 28
-7 15 -21 38 -30 52 -9 14 -49 80 -89 147 -39 68 -75 125 -78 127 -4 2 -7 -74
-7 -170 0 -109 -4 -174 -10 -174 -6 0 -11 75 -13 200 l-2 200 27 0 c26 0 36
-14 118 -155z m424 136 c15 -12 21 -23 16 -31 -6 -10 -11 -10 -20 3 -34 46
-104 39 -134 -15 -26 -45 -7 -76 73 -119 92 -50 109 -68 109 -119 0 -67 -73
-128 -140 -117 -37 6 -103 43 -103 58 0 16 23 10 46 -12 56 -52 154 -24 154
44 -1 41 -23 67 -85 101 -65 37 -85 54 -101 93 -29 67 29 133 116 133 28 0 54
-7 69 -19z m346 7 c51 -23 70 -95 38 -148 -22 -38 -52 -50 -128 -50 l-65 0 0
-100 0 -100 -25 0 -25 0 0 205 0 205 90 0 c49 0 101 -5 115 -12z m185 -193 c0
-198 -1 -205 -20 -205 -19 0 -20 7 -20 205 0 198 1 205 20 205 19 0 20 -7 20
-205z m320 188 c73 -43 64 -156 -15 -184 -19 -7 -35 -16 -35 -19 0 -4 29 -47
64 -96 58 -80 62 -89 43 -92 -13 -3 -28 5 -39 20 -10 12 -21 28 -26 33 -4 6
-27 38 -52 72 -36 50 -50 62 -72 63 -30 0 -30 1 -32 -162 0 -22 -5 -28 -23
-28 l-23 0 0 205 0 205 91 0 c67 0 98 -4 119 -17z m430 7 c0 -6 -40 -10 -100
-10 l-100 0 0 -85 0 -85 80 0 c103 0 105 -18 3 -22 l-78 -3 -3 -87 -3 -88 106
0 c63 0 105 -4 105 -10 0 -6 -48 -10 -125 -10 l-125 0 0 205 0 205 120 0 c73
0 120 -4 120 -10z m303 -7 c108 -55 133 -246 44 -341 -37 -40 -71 -52 -152
-52 l-75 0 0 205 0 205 75 0 c51 0 87 -5 108 -17z m-1745 -765 c22 -22 13 -48
-22 -65 l-34 -16 19 -27 c19 -25 18 -60 -3 -60 -5 0 -7 4 -4 9 4 5 -5 23 -19
39 -30 36 -32 52 -6 52 23 0 73 39 66 51 -11 17 -95 10 -136 -11 -44 -23 -59
-47 -38 -61 9 -6 10 -9 2 -9 -18 0 -26 18 -19 46 12 47 159 87 194 52z m807
-23 c0 -24 -6 -33 -33 -45 -33 -16 -33 -16 -13 -35 25 -22 27 -44 6 -71 -15
-18 -15 -18 -9 8 5 21 0 33 -20 53 -30 29 -33 45 -11 45 26 0 75 30 75 45 0
21 -77 20 -130 -1 -43 -17 -69 -49 -47 -57 6 -2 9 -8 5 -12 -10 -11 -28 4 -28
24 0 23 40 60 76 71 16 5 52 8 79 7 48 -2 50 -3 50 -32z m399 10 c9 -14 12
-25 7 -25 -5 0 -14 -19 -20 -42 -15 -59 -47 -108 -70 -108 -24 0 -49 33 -57
76 l-6 32 -32 -61 c-34 -67 -74 -94 -99 -68 -10 11 -8 12 10 7 15 -5 28 0 43
16 41 42 76 138 50 138 -5 0 1 11 14 25 13 14 26 25 30 25 3 0 6 -21 6 -47 0
-62 16 -119 35 -127 32 -12 77 111 60 164 -9 28 10 25 29 -5z m-1274 -14 c0
-5 -7 -14 -15 -21 -14 -11 -65 -93 -65 -104 0 -3 7 -3 15 0 10 4 15 0 15 -10
0 -9 10 -21 23 -26 21 -8 21 -9 -5 -9 -16 -1 -28 4 -28 9 0 6 -9 10 -20 10
-11 0 -20 5 -20 10 0 16 61 134 74 142 15 10 26 10 26 -1z m805 -1 c3 -5 1
-10 -5 -10 -12 0 -70 -88 -70 -108 0 -7 4 -11 9 -8 5 3 11 -3 14 -13 2 -11 15
-21 28 -24 23 -4 22 -4 -3 -6 -15 0 -30 4 -33 9 -3 6 -15 10 -26 10 -24 0 -20
18 17 88 37 70 55 85 69 62z m-316 -26 c-10 -13 -10 -17 2 -25 11 -7 11 -9 -4
-9 -18 0 -56 -65 -44 -76 6 -7 57 43 57 56 0 9 31 22 37 16 3 -3 -4 -15 -16
-27 -21 -23 -28 -49 -13 -49 5 0 23 20 42 45 48 65 62 56 33 -22 -6 -17 -5
-17 15 1 12 11 22 14 22 8 0 -6 -13 -21 -28 -34 -16 -13 -41 -44 -56 -70 -28
-49 -61 -64 -73 -32 -6 15 32 64 50 64 6 0 1 -10 -11 -23 -12 -13 -22 -30 -22
-37 0 -22 39 20 43 47 1 11 9 28 16 37 8 9 10 20 6 24 -4 4 -10 1 -12 -5 -6
-16 -40 -17 -45 -2 -3 8 -11 8 -27 -2 -19 -11 -25 -11 -28 -1 -6 15 -33 16
-33 1 0 -6 -10 -9 -22 -7 -14 2 -22 10 -20 18 2 11 -1 11 -11 -2 -15 -20 -42
-24 -52 -8 -3 6 -15 5 -31 -2 -20 -9 -27 -9 -33 1 -7 10 -12 10 -30 -1 -15 -9
-26 -10 -38 -2 -12 7 -26 8 -44 1 -58 -23 -80 23 -32 68 36 32 66 34 61 3 -2
-16 -13 -26 -35 -33 -18 -5 -33 -15 -33 -22 0 -25 33 -12 82 32 35 31 58 45
77 44 23 -2 23 -2 4 -6 -22 -4 -73 -56 -73 -74 0 -14 21 0 48 33 32 38 42 35
36 -9 l-6 -38 30 31 c16 17 32 38 34 45 3 8 9 10 14 6 4 -4 3 -17 -4 -27 -7
-11 -12 -26 -12 -35 0 -25 26 -6 49 35 12 22 26 40 32 40 12 0 12 -6 -7 -42
-23 -45 -3 -57 30 -18 14 17 26 38 26 46 0 8 4 14 9 14 5 0 13 9 16 20 3 11
13 20 22 20 13 0 13 -3 2 -16z m1001 7 c0 -6 -5 -13 -12 -17 -8 -5 -6 -10 8
-15 18 -7 18 -8 -2 -8 -21 -1 -44 -37 -44 -69 1 -12 13 -3 40 28 39 44 66 51
36 8 -17 -24 -21 -48 -8 -48 4 0 21 20 37 45 42 63 63 59 29 -6 -14 -29 -14
-31 2 -27 10 2 28 19 41 38 12 19 29 44 38 55 14 17 15 17 11 3 -4 -13 0 -18
14 -18 25 0 25 -5 -1 -41 -35 -49 -10 -52 33 -4 37 41 65 55 81 39 12 -12 -13
-42 -43 -52 -16 -6 -30 -16 -30 -21 0 -18 30 -12 63 11 l32 22 -24 -27 c-26
-29 -76 -37 -84 -14 -4 10 -7 10 -18 0 -36 -35 -66 1 -34 43 17 22 19 34 5 34
-5 0 -23 -20 -40 -45 -29 -43 -70 -62 -70 -33 0 9 -3 9 -12 0 -15 -15 -45 -16
-50 -1 -3 9 -9 9 -25 0 -30 -15 -43 -14 -43 6 0 15 -1 15 -18 0 -23 -21 -39
-21 -50 -1 -8 14 -10 14 -21 0 -21 -25 -51 -20 -51 7 0 30 49 77 81 77 22 0
22 -2 -8 -16 -37 -18 -72 -64 -50 -64 7 0 26 13 42 30 30 31 52 31 35 0 -25
-46 2 -48 33 -2 11 15 19 32 20 37 2 14 39 55 49 55 4 0 8 -4 8 -9z m-510 -40
c0 -5 -7 -26 -16 -47 l-16 -39 26 24 c39 36 32 20 -11 -26 -21 -22 -47 -55
-58 -74 -12 -19 -30 -35 -43 -37 -36 -5 -27 32 17 70 36 31 77 89 52 74 -18
-11 -13 9 10 38 20 26 39 34 39 17z m-72 -8 c-2 -5 -10 -20 -17 -36 -8 -15
-11 -30 -6 -35 4 -4 10 -1 12 6 3 6 10 12 16 12 6 0 4 -7 -5 -16 -25 -25 -52
-11 -43 24 4 15 11 33 17 39 11 14 32 18 26 6z m-878 -87 c0 -2 -7 -7 -16 -10
-8 -3 -12 -2 -9 4 6 10 25 14 25 6z"/>
<path d="M2060 2285 l0 -85 58 0 c45 0 63 5 80 20 40 38 41 86 1 128 -16 18
-31 22 -79 22 l-60 0 0 -85z"/>
<path d="M2560 2280 l0 -90 55 0 c42 0 60 5 75 20 45 45 47 94 7 138 -17 18
-31 22 -79 22 l-58 0 0 -90z"/>
<path d="M3310 2185 l0 -185 53 0 c65 0 90 16 122 80 43 85 30 197 -30 257
-29 29 -39 33 -89 33 l-56 0 0 -185z"/>
<path d="M1740 1495 c-16 -19 -1 -19 24 0 16 12 17 15 4 15 -8 0 -21 -7 -28
-15z"/>
<path d="M3389 1493 c-13 -15 -12 -15 9 -4 23 12 28 21 13 21 -5 0 -15 -7 -22
-17z"/>
<path d="M2512 1367 c-23 -25 -28 -37 -13 -37 10 0 45 50 39 56 -3 2 -14 -6
-26 -19z"/>
<path d="M3492 4419 c2 -6 8 -10 13 -10 5 0 11 4 13 10 2 6 -4 11 -13 11 -9 0
-15 -5 -13 -11z"/>
<path d="M3660 4366 c0 -45 0 -45 29 -40 21 5 41 0 65 -16 l36 -22 0 51 c0 57
1 56 -77 66 l-53 6 0 -45z"/>
<path d="M1105 4219 c-55 -16 -143 -41 -195 -55 -52 -14 -101 -29 -109 -34
-12 -7 -92 -306 -146 -551 -8 -37 -18 -75 -22 -85 -14 -37 19 2 153 179 76
100 170 223 209 273 150 196 220 288 223 296 5 11 -2 10 -113 -23z"/>
<path d="M3961 3973 c1 -5 34 -38 74 -75 51 -47 82 -68 99 -68 45 0 31 24 -36
63 -26 15 -56 41 -68 57 -14 19 -30 30 -46 30 -13 0 -24 -3 -23 -7z"/>
<path d="M4184 3848 c-3 -4 16 -22 41 -40 43 -31 95 -113 95 -151 0 -8 9 -25
20 -38 l19 -24 2 35 c5 92 -7 169 -33 202 -14 17 -135 31 -144 16z"/>
<path d="M4314 3538 c16 -37 36 -49 36 -20 0 17 -28 52 -43 52 -3 0 0 -14 7
-32z"/>
<path d="M4527 3343 c-4 -3 -34 -9 -66 -12 l-60 -6 19 -42 c10 -24 24 -43 29
-43 6 0 26 14 44 30 19 17 43 30 54 30 25 0 106 -52 127 -81 41 -59 3 -162
-81 -214 -23 -16 -43 -29 -43 -30 0 -13 42 -117 84 -209 l22 -49 39 159 c21
87 46 189 55 225 l18 67 -92 91 c-67 65 -100 91 -118 91 -13 0 -28 -3 -31 -7z"/>
<path d="M464 3213 c-49 -64 -116 -151 -149 -193 -33 -43 -71 -92 -85 -110
-14 -19 -35 -46 -47 -61 -13 -15 -23 -31 -23 -35 0 -5 16 -47 36 -94 19 -47
38 -92 40 -100 3 -8 27 -67 54 -130 l48 -115 10 40 c9 34 77 319 142 595 10
41 31 130 48 198 16 67 26 122 23 122 -4 0 -47 -52 -97 -117z"/>
<path d="M4656 2600 c-25 -106 -161 -681 -186 -783 -18 -71 -30 -130 -27 -133
2 -2 53 59 113 137 60 78 148 191 196 253 66 83 86 116 82 131 -8 24 -139 347
-159 390 l-14 29 -5 -24z"/>
<path d="M291 2068 c-28 -117 -51 -220 -51 -230 0 -9 44 -57 97 -107 l96 -91
26 29 c14 15 45 34 69 41 23 7 42 19 42 25 0 11 -58 157 -127 320 -35 83 -39
93 -64 155 -12 30 -25 58 -29 63 -4 4 -30 -88 -59 -205z"/>
<path d="M4270 1398 c-47 -61 -105 -136 -130 -168 -25 -32 -65 -84 -90 -116
-25 -32 -63 -81 -85 -108 -103 -129 -198 -257 -194 -261 3 -2 25 3 49 11 25 8
124 38 220 67 l174 53 38 165 c21 90 54 231 74 312 20 82 34 150 33 152 -2 1
-42 -47 -89 -107z"/>
<path d="M687 1423 c-12 -11 -8 -23 8 -23 8 0 15 7 15 15 0 16 -12 20 -23 8z"/>
<path d="M615 1360 l-29 -30 18 -55 c20 -64 116 -194 116 -156 0 5 3 17 6 26
4 9 2 15 -5 13 -15 -4 -51 86 -51 124 0 15 5 39 10 54 7 19 7 30 -1 40 -17 21
-32 17 -64 -16z"/>
<path d="M847 1163 c-3 -5 7 -36 21 -71 l26 -63 35 35 35 36 -34 35 c-31 32
-72 46 -83 28z"/>
<path d="M771 1116 l-24 -25 41 -45 c22 -24 48 -59 58 -77 l17 -34 9 26 c11
33 -39 172 -63 177 -8 1 -25 -9 -38 -22z"/>
<path d="M1103 885 c-24 -19 -60 -36 -83 -40 -59 -10 -53 -41 15 -75 34 -17
56 -36 67 -59 19 -38 18 -39 44 54 9 33 23 69 30 80 18 25 18 40 -2 59 -20 21
-22 20 -71 -19z"/>
<path d="M910 832 c0 -11 41 -54 46 -49 12 12 -10 57 -27 57 -10 0 -19 -4 -19
-8z"/>
<path d="M3645 680 c-11 -5 -85 -28 -165 -50 -435 -126 -710 -209 -722 -220
-5 -3 70 -16 165 -29 94 -12 234 -31 310 -42 75 -10 146 -19 156 -19 12 0 49
41 106 118 49 64 91 119 95 122 10 8 90 118 90 125 0 7 -11 5 -35 -5z"/>
<path d="M1420 605 c-18 -19 -20 -25 -8 -25 8 0 37 -3 64 -6 l49 -7 -30 31
c-37 38 -45 39 -75 7z"/>
<path d="M1765 376 c88 -86 170 -158 182 -162 12 -3 51 3 85 14 35 11 174 53
310 93 137 40 246 74 244 77 -2 2 -55 10 -118 17 -62 8 -167 21 -233 30 -135
19 -274 37 -450 59 -66 9 -133 18 -150 21 -25 5 -4 -20 130 -149z"/>
</g>
</svg>
